<svg id="svg" version="1.1" width="500" height="500" xmlns="http://www.w3.org/2000/svg" xmlns:xlink="http://www.w3.org/1999/xlink" style="display: block;"><g id="svgg"><path id="path0" d="M17.312 301.355 C 16.411 302.256,16.763 303.200,18.000 303.200 C 18.660 303.200,19.200 302.861,19.200 302.447 C 19.200 301.438,17.951 300.716,17.312 301.355 M334.400 352.425 C 334.400 353.719,335.650 354.013,336.348 352.884 C 336.592 352.490,336.253 351.961,335.595 351.709 C 334.869 351.430,334.400 351.711,334.400 352.425 " stroke="none" fill="#000000" fill-rule="evenodd"></path><path id="path1" d="M164.800 49.180 C 164.800 50.071,164.197 50.239,162.334 49.867 C 159.931 49.386,159.874 49.444,160.134 52.087 C 160.315 53.938,160.082 54.736,159.400 54.600 C 158.752 54.470,158.400 55.387,158.400 57.200 C 158.400 58.740,158.040 60.000,157.600 60.000 C 157.160 60.000,156.800 61.440,156.800 63.200 C 156.800 64.960,156.440 66.400,156.000 66.400 C 155.556 66.400,155.200 68.533,155.200 71.200 C 155.200 73.867,154.844 76.000,154.400 76.000 C 153.960 76.000,153.600 75.640,153.600 75.200 C 153.600 74.760,152.700 74.400,151.600 74.400 C 150.500 74.400,149.600 74.760,149.600 75.200 C 149.600 75.640,147.800 76.000,145.600 76.000 C 143.400 76.000,141.600 76.360,141.600 76.800 C 141.600 77.240,140.520 77.600,139.200 77.600 C 137.880 77.600,136.800 77.960,136.800 78.400 C 136.800 78.840,135.720 79.200,134.400 79.200 C 133.080 79.200,132.000 79.560,132.000 80.000 C 132.000 80.440,131.280 80.800,130.400 80.800 C 129.520 80.800,128.800 81.160,128.800 81.600 C 128.800 82.040,128.260 82.400,127.600 82.400 C 126.940 82.400,126.400 82.958,126.400 83.640 C 126.400 84.550,126.054 84.686,125.099 84.151 C 123.355 83.175,119.200 85.270,119.200 87.125 C 119.200 89.109,118.333 89.741,117.061 88.685 C 115.840 87.671,112.800 90.475,112.800 92.616 C 112.800 93.410,112.262 93.646,111.124 93.348 C 109.322 92.877,102.400 98.951,102.400 101.002 C 102.400 101.577,101.680 102.566,100.800 103.200 C 99.920 103.834,99.200 104.994,99.200 105.777 C 99.200 106.559,98.833 107.200,98.385 107.200 C 97.915 107.200,97.782 108.047,98.071 109.200 C 98.451 110.712,98.260 111.200,97.287 111.200 C 96.579 111.200,96.000 111.740,96.000 112.400 C 96.000 113.060,95.640 113.600,95.200 113.600 C 94.760 113.600,94.400 114.320,94.400 115.200 C 94.400 116.080,94.040 116.800,93.600 116.800 C 93.160 116.800,92.800 117.340,92.800 118.000 C 92.800 118.660,92.440 119.200,92.000 119.200 C 91.560 119.200,91.200 120.280,91.200 121.600 C 91.200 122.920,90.840 124.000,90.400 124.000 C 89.960 124.000,89.600 125.080,89.600 126.400 C 89.600 127.720,89.202 128.800,88.716 128.800 C 88.168 128.800,87.947 130.010,88.136 131.984 C 88.334 134.063,88.086 135.303,87.420 135.559 C 86.859 135.774,86.400 136.861,86.400 137.975 C 86.400 139.089,85.993 140.000,85.495 140.000 C 84.897 140.000,84.738 141.109,85.027 143.259 C 85.367 145.800,85.224 146.427,84.376 146.102 C 83.553 145.786,83.156 147.033,82.741 151.242 C 82.440 154.299,81.880 156.800,81.497 156.800 C 81.113 156.800,80.800 158.240,80.800 160.000 C 80.800 161.760,80.440 163.200,80.000 163.200 C 79.560 163.200,79.200 164.640,79.200 166.400 C 79.200 168.160,78.840 169.600,78.400 169.600 C 77.960 169.600,77.600 171.040,77.600 172.800 C 77.600 174.560,77.240 176.000,76.800 176.000 C 76.360 176.000,76.000 177.800,76.000 180.000 C 76.000 182.200,75.640 184.000,75.200 184.000 C 74.760 184.000,74.400 184.900,74.400 186.000 C 74.400 187.100,73.950 188.006,73.400 188.012 C 72.731 188.020,72.798 188.285,73.600 188.812 C 74.617 189.480,74.629 189.710,73.682 190.320 C 72.905 190.821,72.707 191.916,73.032 193.920 C 73.387 196.107,73.223 196.800,72.350 196.800 C 71.569 196.800,71.200 197.699,71.200 199.600 C 71.200 201.140,70.840 202.400,70.400 202.400 C 69.960 202.400,69.600 203.840,69.600 205.600 C 69.600 207.360,69.240 208.800,68.800 208.800 C 68.360 208.800,68.000 210.600,68.000 212.800 C 68.000 215.000,67.640 216.800,67.200 216.800 C 66.760 216.800,66.400 217.670,66.400 218.733 C 66.400 219.797,65.950 220.848,65.400 221.070 C 64.600 221.393,64.600 221.486,65.400 221.537 C 65.950 221.572,66.400 221.981,66.400 222.447 C 66.400 222.913,65.987 223.039,65.482 222.727 C 64.822 222.319,64.681 223.191,64.979 225.834 C 65.280 228.506,65.094 229.623,64.297 229.929 C 63.693 230.160,63.200 231.441,63.200 232.775 C 63.200 234.109,62.840 235.200,62.400 235.200 C 61.960 235.200,61.600 236.640,61.600 238.400 C 61.600 240.160,61.240 241.600,60.800 241.600 C 60.360 241.600,60.000 243.400,60.000 245.600 C 60.000 247.800,59.640 249.600,59.200 249.600 C 58.760 249.600,58.400 250.470,58.400 251.533 C 58.400 252.597,57.950 253.648,57.400 253.870 C 56.803 254.111,56.964 254.299,57.800 254.337 C 59.502 254.414,59.693 256.000,58.000 256.000 C 57.162 256.000,56.800 256.844,56.800 258.800 C 56.800 260.340,56.440 261.600,56.000 261.600 C 55.560 261.600,55.200 263.040,55.200 264.800 C 55.200 266.588,54.813 268.000,54.323 268.000 C 53.766 268.000,53.547 269.464,53.723 272.000 C 53.931 275.005,53.725 276.001,52.895 276.000 C 52.067 276.000,51.897 276.803,52.219 279.200 C 52.617 282.172,51.777 283.670,50.984 281.400 C 50.792 280.850,50.485 281.900,50.303 283.733 C 50.120 285.566,50.209 286.918,50.501 286.737 C 50.793 286.557,51.244 286.961,51.503 287.635 C 51.769 288.330,51.459 289.058,50.787 289.316 C 50.116 289.573,49.600 290.778,49.600 292.086 C 49.600 293.359,49.240 294.400,48.800 294.400 C 48.360 294.400,48.000 295.840,48.000 297.600 C 48.000 299.360,47.640 300.800,47.200 300.800 C 46.760 300.800,46.400 302.240,46.400 304.000 C 46.400 305.760,46.040 307.200,45.600 307.200 C 45.160 307.200,44.800 309.000,44.800 311.200 C 44.800 313.400,44.440 315.200,44.000 315.200 C 43.560 315.200,43.200 316.656,43.200 318.436 C 43.200 321.839,45.883 325.600,48.310 325.600 C 48.960 325.600,49.721 326.320,50.000 327.200 C 50.279 328.080,51.204 328.800,52.054 328.800 C 52.904 328.800,53.600 329.160,53.600 329.600 C 53.600 330.040,54.680 330.400,56.000 330.400 C 57.320 330.400,58.400 330.760,58.400 331.200 C 58.400 331.640,59.861 332.000,61.647 332.000 C 63.608 332.000,64.699 332.317,64.400 332.800 C 64.081 333.316,67.164 333.600,73.070 333.600 L 82.233 333.600 82.800 327.200 C 83.112 323.680,83.689 320.800,84.083 320.800 C 84.477 320.800,84.800 319.540,84.800 318.000 C 84.800 316.460,85.160 315.200,85.600 315.200 C 86.040 315.200,86.400 313.760,86.400 312.000 C 86.400 310.240,86.760 308.800,87.200 308.800 C 87.640 308.800,88.000 307.360,88.000 305.600 C 88.000 303.840,88.360 302.400,88.800 302.400 C 89.240 302.400,89.600 300.960,89.600 299.200 C 89.600 297.440,89.960 296.000,90.400 296.000 C 90.840 296.000,91.200 294.560,91.200 292.800 C 91.200 291.040,91.560 289.600,92.000 289.600 C 92.440 289.600,92.800 288.160,92.800 286.400 C 92.800 284.640,93.160 283.200,93.600 283.200 C 94.040 283.200,94.400 281.940,94.400 280.400 C 94.400 278.860,94.760 277.600,95.200 277.600 C 95.640 277.600,96.000 276.160,96.000 274.400 C 96.000 272.640,96.360 271.200,96.800 271.200 C 97.240 271.200,97.600 269.760,97.600 268.000 C 97.600 266.240,97.960 264.800,98.400 264.800 C 98.840 264.800,99.200 263.360,99.200 261.600 C 99.200 259.840,99.560 258.400,100.000 258.400 C 100.440 258.400,100.800 256.960,100.800 255.200 C 100.800 253.440,101.160 252.000,101.600 252.000 C 102.040 252.000,102.400 250.740,102.400 249.200 C 102.400 247.652,102.804 246.400,103.304 246.400 C 103.902 246.400,104.071 245.182,103.802 242.800 C 103.481 239.948,103.647 239.200,104.601 239.200 C 105.557 239.200,105.699 238.542,105.293 236.000 C 104.871 233.360,105.011 232.800,106.093 232.800 C 107.175 232.800,107.315 232.240,106.893 229.600 C 106.471 226.960,106.611 226.400,107.693 226.400 C 108.775 226.400,108.915 225.840,108.493 223.200 C 108.076 220.594,108.217 220.000,109.253 220.000 C 110.236 220.000,110.466 219.319,110.263 217.000 C 110.067 214.768,110.284 214.061,111.110 214.237 C 111.965 214.419,112.122 213.740,111.794 211.290 C 111.474 208.909,111.670 207.991,112.571 207.645 C 113.475 207.298,113.645 206.488,113.251 204.392 C 112.823 202.106,112.970 201.600,114.066 201.600 C 115.180 201.600,115.318 201.062,114.893 198.400 C 114.485 195.852,114.628 195.200,115.591 195.200 C 116.401 195.200,116.800 194.408,116.800 192.800 C 116.800 191.480,117.139 190.400,117.553 190.400 C 118.710 190.400,119.327 191.827,118.413 192.392 C 117.361 193.042,117.349 199.200,118.400 199.200 C 118.840 199.200,119.200 201.180,119.200 203.600 C 119.200 206.587,119.521 208.000,120.200 207.999 C 121.121 207.998,121.339 230.432,120.588 248.000 C 120.455 251.118,120.750 252.688,121.600 253.390 C 122.645 254.252,122.553 254.574,120.885 255.880 C 119.102 257.277,118.998 257.776,119.378 263.090 C 119.751 268.307,119.041 270.803,118.151 267.400 C 117.950 266.630,117.744 268.538,117.693 271.640 C 117.638 274.994,117.979 277.659,118.534 278.214 C 119.245 278.925,119.138 279.274,118.081 279.680 C 116.962 280.109,116.733 281.055,116.896 284.567 C 117.032 287.512,116.753 289.135,116.032 289.580 C 115.298 290.034,115.104 291.255,115.408 293.519 C 115.742 296.012,115.578 296.800,114.724 296.800 C 113.895 296.800,113.600 297.955,113.600 301.200 L 113.600 305.600 150.800 305.600 C 187.467 305.600,188.000 305.623,188.000 307.200 C 188.000 308.693,188.533 308.800,195.992 308.800 L 203.984 308.800 204.192 231.400 C 204.306 188.830,204.307 132.811,204.194 106.914 L 203.987 59.828 194.794 60.120 C 187.789 60.342,185.600 60.172,185.600 59.406 C 185.600 58.652,188.103 58.400,195.600 58.400 L 205.600 58.400 205.600 71.200 C 205.600 83.390,205.675 84.000,207.172 84.000 C 210.104 84.000,210.868 87.146,208.072 87.706 L 205.673 88.185 205.836 196.891 L 206.000 305.597 223.866 305.599 L 241.733 305.600 241.153 285.600 C 240.623 267.350,240.687 265.600,241.886 265.600 C 243.070 265.600,243.200 267.586,243.200 285.600 L 243.200 305.600 262.000 305.600 L 280.800 305.600 280.800 301.600 C 280.800 299.400,280.440 297.600,280.000 297.600 C 279.560 297.600,279.200 296.199,279.200 294.486 C 279.200 292.621,278.770 291.206,278.128 290.960 C 277.344 290.659,277.156 289.346,277.427 286.074 C 277.729 282.431,277.571 281.600,276.575 281.600 C 275.565 281.600,275.428 280.764,275.787 276.800 C 276.140 272.908,275.999 272.000,275.043 272.000 C 274.072 272.000,273.930 270.872,274.235 265.600 C 274.535 260.423,274.388 259.200,273.466 259.200 C 272.523 259.200,272.385 257.461,272.664 249.088 C 272.955 240.358,272.823 238.876,271.700 238.248 C 269.770 237.168,269.761 221.600,271.691 221.600 C 272.816 221.600,272.942 220.524,272.671 213.200 C 272.432 206.762,272.598 204.800,273.380 204.800 C 274.073 204.800,274.400 203.498,274.400 200.743 C 274.400 198.293,274.853 196.233,275.543 195.543 C 277.209 193.877,277.600 194.116,277.600 196.800 C 277.600 198.120,277.886 199.200,278.236 199.200 C 278.587 199.200,278.963 200.539,279.073 202.176 C 279.184 203.812,279.535 205.342,279.854 205.576 C 280.173 205.809,280.553 207.260,280.697 208.800 C 280.842 210.340,281.325 211.826,281.771 212.103 C 282.267 212.411,282.158 212.774,281.491 213.040 C 280.716 213.348,280.690 213.492,281.400 213.537 C 281.950 213.572,282.400 214.281,282.400 215.114 C 282.400 215.947,283.000 216.859,283.734 217.141 C 284.750 217.531,284.845 217.875,284.134 218.586 C 282.757 219.963,282.910 224.061,284.319 223.520 C 285.652 223.009,286.783 224.469,285.613 225.192 C 284.215 226.056,284.599 230.427,286.025 229.880 C 287.050 229.486,287.164 229.946,286.722 232.705 C 286.289 235.418,286.423 236.000,287.482 236.000 C 288.547 236.000,288.684 236.621,288.276 239.600 C 287.941 242.043,288.074 243.200,288.691 243.200 C 289.194 243.200,289.600 244.431,289.600 245.953 C 289.600 247.467,289.960 248.928,290.400 249.200 C 290.840 249.472,291.200 250.933,291.200 252.447 C 291.200 253.961,291.560 255.200,292.000 255.200 C 292.440 255.200,292.800 256.640,292.800 258.400 C 292.800 260.160,293.160 261.600,293.600 261.600 C 294.040 261.600,294.400 263.040,294.400 264.800 C 294.400 266.560,294.760 268.000,295.200 268.000 C 295.640 268.000,296.000 269.440,296.000 271.200 C 296.000 272.960,296.360 274.400,296.800 274.400 C 297.240 274.400,297.600 275.840,297.600 277.600 C 297.600 279.360,297.960 280.800,298.400 280.800 C 298.840 280.800,299.200 281.700,299.200 282.800 C 299.200 283.900,299.560 284.800,300.000 284.800 C 300.440 284.800,300.800 286.240,300.800 288.000 C 300.800 289.760,301.160 291.200,301.600 291.200 C 302.040 291.200,302.400 292.640,302.400 294.400 C 302.400 296.160,302.760 297.600,303.200 297.600 C 303.640 297.600,304.000 298.860,304.000 300.400 C 304.000 302.271,304.373 303.200,305.124 303.200 C 305.973 303.200,306.143 303.982,305.819 306.400 C 305.479 308.931,305.646 309.600,306.619 309.600 C 307.593 309.600,307.758 310.270,307.414 312.837 C 307.079 315.335,307.233 316.019,308.090 315.837 C 308.931 315.657,309.135 316.423,308.931 319.000 C 308.767 321.078,309.000 322.400,309.531 322.400 C 310.011 322.400,310.400 323.831,310.400 325.600 C 310.400 327.360,310.760 328.800,311.200 328.800 C 311.640 328.800,312.000 329.880,312.000 331.200 L 312.000 333.600 320.000 333.600 C 326.261 333.600,328.000 333.360,328.000 332.498 C 328.000 331.666,328.880 331.496,331.600 331.802 C 333.982 332.071,335.200 331.902,335.200 331.304 C 335.200 330.807,335.920 330.400,336.800 330.400 C 337.680 330.400,338.400 330.040,338.400 329.600 C 338.400 329.160,339.120 328.800,340.000 328.800 C 340.880 328.800,341.600 328.440,341.600 328.000 C 341.600 327.560,342.281 327.200,343.113 327.200 C 344.062 327.200,344.815 326.450,345.131 325.189 C 345.541 323.558,345.989 323.267,347.510 323.649 C 348.851 323.985,349.537 323.718,349.925 322.707 C 350.638 320.850,349.595 310.400,348.697 310.400 C 348.313 310.400,348.000 309.140,348.000 307.600 C 348.000 305.707,347.630 304.800,346.858 304.800 C 345.954 304.800,345.800 303.842,346.122 300.200 C 346.421 296.816,346.303 295.917,345.676 296.800 C 345.011 297.737,344.822 297.342,344.812 295.000 C 344.806 293.350,344.440 292.000,344.000 292.000 C 343.560 292.000,343.200 290.221,343.200 288.047 C 343.200 285.873,342.840 283.872,342.400 283.600 C 341.960 283.328,341.600 281.867,341.600 280.353 C 341.600 278.839,341.240 277.600,340.800 277.600 C 340.360 277.600,340.000 276.340,340.000 274.800 C 340.000 272.835,339.639 272.000,338.791 272.000 C 337.828 272.000,337.685 271.348,338.093 268.800 C 338.512 266.181,338.371 265.600,337.318 265.600 C 336.253 265.600,336.116 264.979,336.524 262.000 C 336.810 259.916,336.698 258.400,336.258 258.400 C 335.841 258.400,335.412 256.690,335.307 254.600 C 335.201 252.510,334.773 250.680,334.357 250.533 C 333.941 250.387,333.600 249.037,333.600 247.533 C 333.600 246.030,333.240 244.800,332.800 244.800 C 332.360 244.800,332.000 243.540,332.000 242.000 C 332.000 240.179,331.621 239.200,330.917 239.200 C 330.096 239.200,329.930 238.206,330.230 235.083 C 330.515 232.121,330.370 231.124,329.713 231.530 C 329.075 231.925,328.800 230.876,328.800 228.047 C 328.800 225.821,328.440 224.000,328.000 224.000 C 327.560 224.000,327.200 222.560,327.200 220.800 C 327.200 219.040,326.840 217.600,326.400 217.600 C 325.960 217.600,325.600 216.559,325.600 215.286 C 325.600 214.013,325.117 212.786,324.528 212.560 C 323.821 212.289,323.584 211.274,323.831 209.585 C 324.071 207.952,323.817 206.781,323.131 206.357 C 322.442 205.932,322.138 204.520,322.288 202.446 C 322.427 200.516,322.173 199.200,321.661 199.200 C 321.161 199.200,320.800 197.523,320.800 195.200 C 320.800 193.000,320.440 191.200,320.000 191.200 C 319.560 191.200,319.200 189.760,319.200 188.000 C 319.200 186.240,318.871 184.800,318.468 184.800 C 318.066 184.800,317.484 182.100,317.174 178.800 C 316.865 175.500,316.294 172.800,315.906 172.800 C 315.518 172.800,315.200 171.360,315.200 169.600 C 315.200 167.840,314.840 166.400,314.400 166.400 C 313.960 166.400,313.600 164.960,313.600 163.200 C 313.600 161.440,313.240 160.000,312.800 160.000 C 312.360 160.000,312.000 158.560,312.000 156.800 C 312.000 155.040,311.640 153.600,311.200 153.600 C 310.760 153.600,310.400 152.340,310.400 150.800 C 310.400 149.260,310.040 148.000,309.600 148.000 C 309.160 148.000,308.800 146.920,308.800 145.600 C 308.800 144.280,308.440 143.200,308.000 143.200 C 307.560 143.200,307.200 141.760,307.200 140.000 C 307.200 138.240,306.840 136.800,306.400 136.800 C 305.960 136.800,305.600 135.720,305.600 134.400 C 305.600 133.080,305.240 132.000,304.800 132.000 C 304.360 132.000,304.000 130.920,304.000 129.600 C 304.000 128.280,303.640 127.200,303.200 127.200 C 302.760 127.200,302.400 126.300,302.400 125.200 C 302.400 123.971,301.945 123.200,301.220 123.200 C 300.330 123.200,300.161 122.597,300.530 120.749 C 300.931 118.746,300.643 117.994,298.953 116.634 C 297.314 115.316,296.981 114.497,297.343 112.686 C 297.629 111.255,297.463 110.400,296.900 110.400 C 296.405 110.400,296.000 109.759,296.000 108.977 C 296.000 108.194,295.280 107.034,294.400 106.400 C 293.520 105.766,292.800 104.686,292.800 104.000 C 292.800 103.314,292.080 102.234,291.200 101.600 C 290.320 100.966,289.600 99.970,289.600 99.387 C 289.600 97.784,286.006 94.524,284.401 94.671 C 283.623 94.742,282.890 94.189,282.771 93.440 C 282.497 91.729,278.825 88.000,277.413 88.000 C 276.830 88.000,275.834 87.280,275.200 86.400 C 274.566 85.520,273.627 84.800,273.115 84.800 C 272.602 84.800,271.152 84.262,269.891 83.605 C 268.631 82.948,266.970 82.408,266.200 82.405 C 265.430 82.402,264.800 82.040,264.800 81.600 C 264.800 81.160,264.080 80.800,263.200 80.800 C 262.320 80.800,261.600 80.440,261.600 80.000 C 261.600 79.560,260.520 79.200,259.200 79.200 C 257.880 79.200,256.800 78.840,256.800 78.400 C 256.800 77.960,255.360 77.600,253.600 77.600 C 251.840 77.600,250.400 77.240,250.400 76.800 C 250.400 76.360,249.161 76.000,247.647 76.000 C 246.133 76.000,244.672 75.640,244.400 75.200 C 243.296 73.414,240.000 74.313,240.000 76.400 C 240.000 77.987,239.597 78.400,238.047 78.400 C 235.515 78.400,234.540 76.823,236.720 76.253 C 238.518 75.783,239.348 68.000,237.600 68.000 C 237.160 68.000,236.800 66.740,236.800 65.200 C 236.800 63.299,236.431 62.400,235.650 62.400 C 234.784 62.400,234.612 61.713,234.953 59.614 C 235.287 57.556,235.086 56.706,234.186 56.361 C 233.271 56.010,233.072 55.106,233.389 52.746 C 233.739 50.136,233.575 49.600,232.429 49.600 C 230.633 49.600,226.402 52.105,226.394 53.172 C 226.388 53.986,222.789 56.000,221.343 56.000 C 220.936 56.000,221.052 55.460,221.600 54.800 C 222.148 54.140,223.012 53.600,223.520 53.600 C 224.337 53.600,228.800 49.135,228.800 48.318 C 228.800 48.143,214.400 48.000,196.800 48.000 C 169.130 48.000,164.800 48.160,164.800 49.180 M171.437 54.025 C 172.672 55.721,172.700 56.000,171.637 56.000 C 170.957 56.000,170.400 55.640,170.400 55.200 C 170.400 54.760,169.680 54.400,168.800 54.400 C 167.206 54.400,166.719 53.548,167.733 52.533 C 168.731 51.536,169.997 52.046,171.437 54.025 M176.600 56.467 C 175.838 57.229,174.309 55.994,174.877 55.075 C 175.215 54.529,175.662 54.542,176.237 55.117 C 176.708 55.588,176.871 56.195,176.600 56.467 M181.400 58.067 C 180.638 58.829,179.109 57.594,179.677 56.675 C 180.015 56.129,180.462 56.142,181.037 56.717 C 181.508 57.188,181.671 57.795,181.400 58.067 M178.000 85.611 C 178.000 86.265,177.190 86.915,176.200 87.056 C 174.449 87.304,173.701 85.765,174.961 84.506 C 175.893 83.574,178.000 84.340,178.000 85.611 M188.000 85.501 C 188.000 85.784,187.297 86.454,186.437 86.991 C 184.714 88.067,183.554 87.116,184.280 85.224 C 184.690 84.156,188.000 84.403,188.000 85.501 M218.931 85.254 C 219.196 85.943,219.095 86.819,218.706 87.200 C 217.771 88.117,214.884 85.959,215.567 84.853 C 216.353 83.581,218.382 83.823,218.931 85.254 M150.400 91.247 C 150.400 91.661,149.860 92.000,149.200 92.000 C 147.963 92.000,147.611 91.056,148.512 90.155 C 149.151 89.516,150.400 90.238,150.400 91.247 M247.600 95.200 C 247.328 95.640,247.667 96.000,248.353 96.000 C 249.039 96.000,249.600 96.360,249.600 96.800 C 249.600 97.876,248.689 97.769,247.012 96.495 C 246.249 95.916,245.859 95.207,246.146 94.921 C 246.974 94.093,248.145 94.318,247.600 95.200 M144.000 100.847 C 144.000 101.261,143.460 101.600,142.800 101.600 C 141.563 101.600,141.211 100.656,142.112 99.755 C 142.751 99.116,144.000 99.838,144.000 100.847 M139.200 105.200 C 139.200 105.860,138.861 106.400,138.447 106.400 C 137.438 106.400,136.716 105.151,137.355 104.512 C 138.256 103.611,139.200 103.963,139.200 105.200 M260.800 107.600 C 260.800 108.260,260.461 108.800,260.047 108.800 C 259.038 108.800,258.316 107.551,258.955 106.912 C 259.856 106.011,260.800 106.363,260.800 107.600 M270.400 112.498 C 270.400 113.561,270.183 113.616,269.200 112.800 C 268.540 112.252,268.000 111.668,268.000 111.502 C 268.000 111.336,268.540 111.200,269.200 111.200 C 269.860 111.200,270.400 111.784,270.400 112.498 M124.800 113.200 C 124.800 113.860,124.461 114.400,124.047 114.400 C 123.038 114.400,122.316 113.151,122.955 112.512 C 123.856 111.611,124.800 111.963,124.800 113.200 M105.059 113.922 C 106.033 116.459,101.340 116.903,100.000 114.400 C 99.221 112.945,99.392 112.800,101.886 112.800 C 103.501 112.800,104.806 113.261,105.059 113.922 M116.800 113.946 C 116.800 115.231,114.051 116.373,112.807 115.604 C 111.047 114.516,112.022 112.800,114.400 112.800 C 115.950 112.800,116.800 113.206,116.800 113.946 M281.600 114.400 C 281.600 115.644,281.067 116.000,279.200 116.000 C 276.943 116.000,276.006 114.661,277.333 113.333 C 278.600 112.067,281.600 112.817,281.600 114.400 M293.452 114.600 C 293.633 115.554,293.209 116.000,292.124 116.000 C 289.517 116.000,288.071 115.146,288.553 113.891 C 289.184 112.246,293.113 112.815,293.452 114.600 M129.440 136.160 C 130.801 137.521,130.636 138.042,128.800 138.180 C 127.709 138.262,127.200 137.807,127.200 136.750 C 127.200 134.983,128.041 134.761,129.440 136.160 M264.800 138.400 C 264.800 139.321,264.267 140.000,263.543 140.000 C 261.276 140.000,259.831 142.210,260.401 144.805 C 261.070 147.853,259.481 148.043,258.344 145.052 C 257.701 143.361,257.783 142.761,258.730 142.231 C 259.392 141.861,259.743 141.061,259.510 140.455 C 259.228 139.720,259.909 139.171,261.551 138.811 C 262.905 138.513,263.810 137.939,263.560 137.535 C 263.310 137.131,263.487 136.800,263.953 136.800 C 264.419 136.800,264.800 137.520,264.800 138.400 M127.200 141.600 C 127.200 142.480,126.840 143.200,126.400 143.200 C 125.960 143.200,125.600 142.480,125.600 141.600 C 125.600 140.720,125.960 140.000,126.400 140.000 C 126.840 140.000,127.200 140.720,127.200 141.600 M125.600 146.400 C 125.600 147.280,125.240 148.000,124.800 148.000 C 124.360 148.000,124.000 147.280,124.000 146.400 C 124.000 145.520,124.360 144.800,124.800 144.800 C 125.240 144.800,125.600 145.520,125.600 146.400 M123.780 150.400 C 123.846 151.280,123.563 152.000,123.150 152.000 C 122.738 152.000,122.400 151.280,122.400 150.400 C 122.400 149.520,122.683 148.800,123.030 148.800 C 123.376 148.800,123.714 149.520,123.780 150.400 M136.650 151.150 C 136.850 151.750,136.550 152.050,135.950 151.850 C 135.373 151.657,134.743 151.028,134.550 150.450 C 134.350 149.850,134.650 149.550,135.250 149.750 C 135.828 149.942,136.458 150.572,136.650 151.150 M256.580 152.000 C 256.646 152.880,256.363 153.600,255.950 153.600 C 255.538 153.600,255.200 152.880,255.200 152.000 C 255.200 151.120,255.483 150.400,255.830 150.400 C 256.176 150.400,256.514 151.120,256.580 152.000 M122.000 154.400 C 121.728 154.840,121.887 155.200,122.353 155.200 C 122.819 155.200,123.200 155.560,123.200 156.000 C 123.200 157.166,119.957 160.224,119.357 159.623 C 119.076 159.343,119.331 158.814,119.923 158.447 C 120.515 158.081,121.000 156.841,121.000 155.691 C 121.000 154.541,121.336 153.600,121.747 153.600 C 122.158 153.600,122.272 153.960,122.000 154.400 M255.200 156.800 C 255.200 157.680,254.840 158.400,254.400 158.400 C 253.960 158.400,253.600 157.680,253.600 156.800 C 253.600 155.920,253.960 155.200,254.400 155.200 C 254.840 155.200,255.200 155.920,255.200 156.800 M140.800 160.467 C 140.800 161.879,139.078 161.633,138.583 160.150 C 138.409 159.628,138.837 159.200,139.533 159.200 C 140.230 159.200,140.800 159.770,140.800 160.467 M253.600 163.200 C 253.600 164.080,253.240 164.800,252.800 164.800 C 252.360 164.800,252.000 164.080,252.000 163.200 C 252.000 162.320,252.360 161.600,252.800 161.600 C 253.240 161.600,253.600 162.320,253.600 163.200 M142.247 166.460 C 142.089 166.933,141.618 167.320,141.200 167.320 C 140.782 167.320,140.311 166.933,140.153 166.460 C 139.996 165.987,140.467 165.600,141.200 165.600 C 141.933 165.600,142.404 165.987,142.247 166.460 M117.079 168.374 C 117.592 169.711,116.401 170.742,115.200 170.000 C 114.004 169.261,114.235 167.200,115.514 167.200 C 116.127 167.200,116.832 167.728,117.079 168.374 M252.000 169.440 C 252.000 170.232,252.391 171.271,252.870 171.750 C 253.496 172.376,253.471 172.785,252.780 173.212 C 252.253 173.538,251.507 173.309,251.123 172.702 C 250.166 171.192,250.219 168.000,251.200 168.000 C 251.640 168.000,252.000 168.648,252.000 169.440 M278.400 170.800 C 279.216 171.783,279.161 172.000,278.098 172.000 C 277.384 172.000,276.800 171.460,276.800 170.800 C 276.800 170.140,276.936 169.600,277.102 169.600 C 277.268 169.600,277.852 170.140,278.400 170.800 M113.324 173.165 C 113.063 173.844,112.479 174.400,112.025 174.400 C 110.853 174.400,110.999 172.205,112.200 171.776 C 113.559 171.291,113.888 171.697,113.324 173.165 M142.689 174.000 C 142.970 174.731,142.691 175.200,141.975 175.200 C 141.329 175.200,140.800 174.660,140.800 174.000 C 140.800 173.340,141.121 172.800,141.514 172.800 C 141.907 172.800,142.436 173.340,142.689 174.000 M251.279 179.674 C 251.668 180.154,251.749 180.784,251.460 181.074 C 250.238 182.296,249.606 181.411,249.693 178.600 C 249.746 176.872,249.952 176.278,250.179 177.200 C 250.395 178.080,250.890 179.193,251.279 179.674 M145.012 181.278 C 145.652 181.919,144.814 184.000,143.914 184.000 C 143.521 184.000,143.200 183.280,143.200 182.400 C 143.200 180.841,144.049 180.315,145.012 181.278 M249.461 186.200 C 249.565 187.850,249.843 189.830,250.079 190.600 C 250.361 191.520,250.078 192.000,249.254 192.000 C 248.329 192.000,248.000 191.178,248.000 188.865 C 248.000 187.141,247.781 185.161,247.514 184.465 C 247.214 183.682,247.456 183.200,248.151 183.200 C 248.881 183.200,249.339 184.249,249.461 186.200 M146.843 192.070 C 147.667 193.404,145.813 194.933,144.710 193.830 C 143.787 192.907,144.364 191.200,145.600 191.200 C 145.988 191.200,146.547 191.591,146.843 192.070 M248.209 199.000 C 248.560 202.959,247.908 205.877,246.925 204.747 C 245.903 203.571,245.715 194.400,246.713 194.400 C 247.458 194.400,247.931 195.853,248.209 199.000 M147.535 204.486 C 148.776 204.962,149.264 207.270,148.322 208.212 C 147.326 209.208,145.600 207.751,145.600 205.914 C 145.600 203.826,145.674 203.771,147.535 204.486 M246.663 215.000 C 247.046 220.189,246.923 221.600,246.090 221.600 C 244.659 221.600,243.662 209.503,245.025 208.661 C 246.231 207.916,246.106 207.433,246.663 215.000 M150.400 224.381 C 150.400 226.871,148.978 227.721,147.420 226.162 C 145.522 224.265,146.690 220.471,148.820 221.611 C 149.721 222.093,150.400 223.283,150.400 224.381 M244.747 231.800 C 244.674 233.890,244.881 238.341,245.208 241.691 C 245.731 247.063,245.015 250.290,243.657 248.680 C 242.543 247.358,242.514 228.000,243.627 228.000 C 244.606 228.000,244.850 228.829,244.747 231.800 M151.846 252.722 C 152.119 257.508,151.190 259.252,149.234 257.628 C 147.968 256.577,147.454 249.613,148.561 248.506 C 150.236 246.830,151.610 248.593,151.846 252.722 " stroke="none" fill="#ffffff" fill-rule="evenodd"></path><path id="path2" d="M233.600 54.800 C 233.600 55.460,233.960 56.000,234.400 56.000 C 234.840 56.000,235.200 55.460,235.200 54.800 C 235.200 54.140,234.840 53.600,234.400 53.600 C 233.960 53.600,233.600 54.140,233.600 54.800 M236.400 76.800 C 236.120 77.254,236.792 77.600,237.953 77.600 C 239.079 77.600,240.000 77.240,240.000 76.800 C 240.000 76.360,239.301 76.000,238.447 76.000 C 237.593 76.000,236.672 76.360,236.400 76.800 M175.193 85.991 C 176.192 87.195,177.600 86.939,177.600 85.553 C 177.600 85.139,176.836 84.800,175.902 84.800 C 174.489 84.800,174.370 85.000,175.193 85.991 M184.511 86.000 C 184.230 86.731,184.509 87.200,185.225 87.200 C 185.871 87.200,186.400 86.660,186.400 86.000 C 186.400 85.340,186.079 84.800,185.686 84.800 C 185.293 84.800,184.764 85.340,184.511 86.000 M205.600 86.000 C 205.600 86.743,206.353 87.200,207.575 87.200 C 209.002 87.200,209.422 86.867,209.089 86.000 C 208.836 85.340,207.947 84.800,207.114 84.800 C 206.281 84.800,205.600 85.340,205.600 86.000 M216.183 85.750 C 216.677 87.231,218.152 87.399,218.676 86.034 C 219.008 85.169,218.659 84.800,217.508 84.800 C 216.597 84.800,216.007 85.222,216.183 85.750 M100.800 114.000 C 100.800 114.743,101.553 115.200,102.775 115.200 C 104.202 115.200,104.622 114.867,104.289 114.000 C 104.036 113.340,103.147 112.800,102.314 112.800 C 101.481 112.800,100.800 113.340,100.800 114.000 M112.800 114.000 C 111.968 115.003,112.083 115.200,113.502 115.200 C 114.478 115.200,115.200 114.690,115.200 114.000 C 115.200 113.340,114.884 112.800,114.498 112.800 C 114.112 112.800,113.348 113.340,112.800 114.000 M278.133 113.333 C 277.050 114.417,277.655 115.200,279.575 115.200 C 281.002 115.200,281.422 114.867,281.089 114.000 C 280.612 112.755,279.061 112.405,278.133 113.333 M289.326 113.961 C 288.973 114.880,289.377 115.200,290.892 115.200 C 292.169 115.200,292.809 114.826,292.600 114.200 C 292.103 112.705,289.870 112.542,289.326 113.961 M300.800 122.000 C 300.800 122.660,301.160 123.200,301.600 123.200 C 302.040 123.200,302.400 122.660,302.400 122.000 C 302.400 121.340,302.040 120.800,301.600 120.800 C 301.160 120.800,300.800 121.340,300.800 122.000 M258.620 144.800 C 258.554 145.680,258.837 146.400,259.250 146.400 C 259.662 146.400,260.000 145.680,260.000 144.800 C 260.000 143.920,259.717 143.200,259.370 143.200 C 259.024 143.200,258.686 143.920,258.620 144.800 M204.533 154.133 C 203.632 155.035,203.897 304.000,204.800 304.000 C 205.328 304.000,205.600 278.400,205.600 228.800 C 205.600 187.440,205.480 153.600,205.333 153.600 C 205.187 153.600,204.827 153.840,204.533 154.133 M246.400 202.400 C 246.400 203.280,246.760 204.000,247.200 204.000 C 247.640 204.000,248.000 203.280,248.000 202.400 C 248.000 201.520,247.640 200.800,247.200 200.800 C 246.760 200.800,246.400 201.520,246.400 202.400 M145.600 205.940 C 145.600 206.539,146.140 207.236,146.800 207.489 C 147.505 207.760,148.000 207.500,148.000 206.860 C 148.000 206.261,147.460 205.564,146.800 205.311 C 146.095 205.040,145.600 205.300,145.600 205.940 M244.800 212.047 C 244.800 212.953,245.160 213.472,245.600 213.200 C 246.040 212.928,246.400 212.187,246.400 211.553 C 246.400 210.919,246.040 210.400,245.600 210.400 C 245.160 210.400,244.800 211.141,244.800 212.047 M244.800 219.200 C 244.800 220.520,245.160 221.600,245.600 221.600 C 246.040 221.600,246.400 220.520,246.400 219.200 C 246.400 217.880,246.040 216.800,245.600 216.800 C 245.160 216.800,244.800 217.880,244.800 219.200 M147.200 223.657 C 147.200 224.349,147.740 225.454,148.400 226.114 C 149.467 227.181,149.600 227.041,149.600 224.857 C 149.600 223.206,149.206 222.400,148.400 222.400 C 147.740 222.400,147.200 222.966,147.200 223.657 M271.200 229.600 C 271.200 233.867,271.526 236.800,272.000 236.800 C 272.474 236.800,272.800 233.867,272.800 229.600 C 272.800 225.333,272.474 222.400,272.000 222.400 C 271.526 222.400,271.200 225.333,271.200 229.600 M243.200 232.047 C 243.200 234.008,243.517 235.099,244.000 234.800 C 244.440 234.528,244.800 233.067,244.800 231.553 C 244.800 230.039,244.440 228.800,244.000 228.800 C 243.560 228.800,243.200 230.261,243.200 232.047 M243.200 244.000 C 243.200 246.200,243.560 248.000,244.000 248.000 C 244.440 248.000,244.800 246.200,244.800 244.000 C 244.800 241.800,244.440 240.000,244.000 240.000 C 243.560 240.000,243.200 241.800,243.200 244.000 M148.800 252.327 C 148.800 255.153,149.207 256.942,150.000 257.600 C 151.044 258.466,151.200 257.970,151.200 253.784 C 151.200 250.244,150.883 248.849,150.000 248.511 C 149.026 248.137,148.800 248.854,148.800 252.327 M119.200 254.308 C 119.200 255.459,119.569 255.808,120.434 255.476 C 121.799 254.952,121.631 253.477,120.150 252.983 C 119.622 252.807,119.200 253.397,119.200 254.308 M272.812 256.600 C 272.806 257.590,273.160 258.400,273.600 258.400 C 274.602 258.400,274.602 257.551,273.600 256.000 C 272.973 255.030,272.822 255.144,272.812 256.600 M241.600 277.200 C 241.600 283.867,241.906 288.000,242.400 288.000 C 242.894 288.000,243.200 283.867,243.200 277.200 C 243.200 270.533,242.894 266.400,242.400 266.400 C 241.906 266.400,241.600 270.533,241.600 277.200 M376.153 292.860 C 376.311 293.333,376.782 293.720,377.200 293.720 C 377.618 293.720,378.089 293.333,378.247 292.860 C 378.404 292.387,377.933 292.000,377.200 292.000 C 376.467 292.000,375.996 292.387,376.153 292.860 M374.653 295.920 C 374.411 296.844,373.835 297.600,373.373 297.600 C 372.911 297.600,372.764 297.831,373.046 298.112 C 373.589 298.655,371.317 303.228,370.051 304.139 C 369.609 304.458,369.731 305.193,370.349 305.939 C 371.457 307.274,373.213 307.715,372.440 306.464 C 372.190 306.060,372.443 305.250,373.002 304.664 C 373.958 303.663,376.000 299.612,376.000 298.715 C 376.000 298.490,375.550 298.534,375.000 298.812 C 374.450 299.091,374.630 298.802,375.400 298.171 C 376.989 296.869,377.201 295.543,375.946 294.767 C 375.476 294.476,374.895 294.994,374.653 295.920 M20.808 306.790 C 19.741 308.076,20.234 310.400,21.575 310.400 C 22.029 310.400,22.400 309.320,22.400 308.000 C 22.400 305.274,22.195 305.119,20.808 306.790 M368.805 309.206 C 369.648 310.222,369.412 310.549,367.304 311.284 C 365.928 311.763,364.985 312.452,365.208 312.813 C 365.432 313.175,365.048 314.037,364.356 314.729 C 363.091 315.995,363.397 317.600,364.904 317.600 C 366.139 317.600,368.000 315.470,368.000 314.057 C 368.000 313.366,368.360 312.800,368.800 312.800 C 369.240 312.800,369.600 312.260,369.600 311.600 C 369.600 310.940,369.960 310.400,370.400 310.400 C 370.840 310.400,371.200 309.860,371.200 309.200 C 371.200 308.510,370.478 308.000,369.502 308.000 C 368.080 308.000,367.967 308.196,368.805 309.206 M22.534 310.463 C 21.776 311.691,21.716 312.436,22.326 313.046 C 23.630 314.350,25.600 314.400,25.600 313.129 C 25.600 312.508,25.265 312.000,24.856 312.000 C 24.446 312.000,23.996 311.266,23.856 310.369 C 23.603 308.759,23.586 308.760,22.534 310.463 M24.000 316.400 C 24.000 317.067,24.711 317.600,25.600 317.600 C 26.489 317.600,27.200 317.067,27.200 316.400 C 27.200 315.733,26.489 315.200,25.600 315.200 C 24.711 315.200,24.000 315.733,24.000 316.400 M26.100 319.039 C 25.430 320.122,27.899 322.610,29.162 322.125 C 29.843 321.864,30.400 321.337,30.400 320.954 C 30.400 320.018,26.553 318.306,26.100 319.039 M360.533 319.733 C 359.658 320.608,359.922 321.399,361.259 321.912 C 362.391 322.346,364.800 320.812,364.800 319.657 C 364.800 319.019,361.184 319.083,360.533 319.733 M29.924 325.296 C 30.406 326.336,31.070 327.190,31.400 327.194 C 31.730 327.197,32.000 327.670,32.000 328.244 C 32.000 330.122,37.322 335.257,38.715 334.722 C 41.237 333.754,39.434 330.891,35.713 329.957 C 33.906 329.503,33.747 329.220,34.507 327.800 C 35.439 326.058,34.408 324.996,30.724 323.902 C 29.205 323.451,29.130 323.583,29.924 325.296 M356.861 325.135 C 355.596 326.481,355.431 327.111,356.152 327.832 C 357.192 328.872,356.762 329.630,354.986 329.890 C 352.381 330.273,350.146 335.200,352.578 335.200 C 353.330 335.200,358.400 329.296,358.400 328.420 C 358.400 327.943,359.120 327.034,360.000 326.400 C 362.006 324.954,362.020 324.296,360.055 323.783 C 359.105 323.534,357.877 324.054,356.861 325.135 M345.600 324.800 C 345.600 325.240,346.140 325.600,346.800 325.600 C 347.460 325.600,348.000 325.240,348.000 324.800 C 348.000 324.360,347.460 324.000,346.800 324.000 C 346.140 324.000,345.600 324.360,345.600 324.800 M40.114 338.600 C 42.293 341.709,47.995 346.882,48.934 346.600 C 49.300 346.490,49.600 346.940,49.600 347.600 C 49.600 348.260,50.140 348.800,50.800 348.800 C 51.460 348.800,52.000 348.438,52.000 347.995 C 52.000 346.525,42.957 337.600,41.466 337.600 C 40.660 337.600,40.000 337.240,40.000 336.800 C 40.000 336.360,39.615 336.000,39.146 336.000 C 38.676 336.000,39.111 337.170,40.114 338.600 M350.400 336.800 C 350.400 337.240,349.868 337.600,349.217 337.600 C 348.151 337.600,343.328 342.102,337.400 348.633 C 334.952 351.329,334.717 352.000,336.221 352.000 C 337.521 352.000,350.400 339.758,350.400 338.523 C 350.400 338.015,350.760 337.600,351.200 337.600 C 351.640 337.600,352.000 337.240,352.000 336.800 C 352.000 336.360,351.640 336.000,351.200 336.000 C 350.760 336.000,350.400 336.360,350.400 336.800 M54.400 351.000 C 54.400 352.782,55.611 354.077,56.274 353.004 C 56.485 352.662,56.150 351.688,55.529 350.838 C 54.427 349.331,54.400 349.335,54.400 351.000 " stroke="none" fill="#d3d3be" fill-rule="evenodd"></path><path id="path3" d="M244.063 211.400 C 244.105 212.603,244.278 212.802,244.583 212.000 C 244.834 211.340,245.436 210.536,245.920 210.212 C 246.463 209.850,246.264 209.620,245.400 209.612 C 244.459 209.604,244.021 210.191,244.063 211.400 M242.602 231.600 C 242.611 233.360,242.774 233.986,242.966 232.991 C 243.157 231.996,243.150 230.556,242.950 229.791 C 242.749 229.026,242.593 229.840,242.602 231.600 M241.113 276.800 C 241.113 282.740,241.239 285.170,241.393 282.200 C 241.547 279.230,241.547 274.370,241.393 271.400 C 241.239 268.430,241.113 270.860,241.113 276.800 M363.608 317.612 C 364.083 318.382,363.898 318.532,362.931 318.161 C 362.199 317.880,361.600 317.999,361.600 318.425 C 361.600 318.851,362.320 319.200,363.200 319.200 C 364.953 319.200,365.336 318.026,363.876 317.124 C 363.262 316.744,363.172 316.907,363.608 317.612 M29.355 322.112 C 28.608 322.858,29.511 324.000,30.847 324.000 C 31.481 324.000,32.000 323.460,32.000 322.800 C 32.000 321.595,30.311 321.155,29.355 322.112 M34.141 328.321 C 33.895 328.963,34.303 329.597,35.094 329.804 C 36.016 330.045,36.514 329.671,36.589 328.683 C 36.719 326.957,34.775 326.669,34.141 328.321 M38.400 334.857 C 38.400 335.354,40.506 337.600,40.971 337.600 C 41.129 337.600,41.257 336.880,41.257 336.000 C 41.257 334.997,40.724 334.400,39.829 334.400 C 39.043 334.400,38.400 334.606,38.400 334.857 M51.575 348.840 C 50.815 350.070,51.856 350.864,52.883 349.837 C 53.458 349.262,53.471 348.815,52.925 348.477 C 52.477 348.200,51.870 348.364,51.575 348.840 " stroke="none" fill="#dfdfd1" fill-rule="evenodd"></path><path id="path4" d="M169.675 52.800 C 169.608 54.377,170.513 55.549,172.000 55.812 C 173.011 55.990,173.000 55.864,171.930 55.012 C 171.231 54.455,170.450 53.460,170.193 52.800 C 169.778 51.733,169.721 51.733,169.675 52.800 M235.597 76.806 C 234.969 77.821,237.040 78.656,238.953 78.160 C 239.880 77.920,239.593 77.752,238.153 77.693 C 236.876 77.640,236.119 77.254,236.400 76.800 C 236.672 76.360,236.714 76.000,236.494 76.000 C 236.274 76.000,235.870 76.363,235.597 76.806 M206.800 84.545 C 207.680 84.787,208.697 85.393,209.061 85.893 C 209.498 86.492,209.612 86.393,209.398 85.600 C 209.220 84.940,208.203 84.334,207.137 84.252 C 205.610 84.136,205.538 84.198,206.800 84.545 M246.196 94.871 C 245.882 95.185,246.249 95.916,247.012 96.495 C 248.689 97.769,249.600 97.876,249.600 96.800 C 249.600 96.360,249.090 96.000,248.467 96.000 C 247.843 96.000,247.206 95.618,247.050 95.150 C 246.894 94.683,246.510 94.557,246.196 94.871 M142.112 99.755 C 141.211 100.656,141.563 101.600,142.800 101.600 C 143.460 101.600,144.000 101.261,144.000 100.847 C 144.000 99.838,142.751 99.116,142.112 99.755 M137.355 104.512 C 136.716 105.151,137.438 106.400,138.447 106.400 C 138.861 106.400,139.200 105.860,139.200 105.200 C 139.200 103.963,138.256 103.611,137.355 104.512 M116.063 113.426 C 116.028 113.990,115.190 114.777,114.200 115.175 C 113.195 115.579,112.930 115.916,113.600 115.937 C 115.468 115.997,117.040 114.699,116.561 113.493 C 116.236 112.675,116.110 112.658,116.063 113.426 M100.683 115.403 C 101.086 115.806,102.267 116.002,103.308 115.838 C 104.909 115.586,104.796 115.473,102.575 115.105 C 100.985 114.841,100.239 114.959,100.683 115.403 M277.800 115.751 C 278.570 115.953,279.830 115.953,280.600 115.751 C 281.370 115.550,280.740 115.386,279.200 115.386 C 277.660 115.386,277.030 115.550,277.800 115.751 M205.984 228.800 C 205.984 269.940,206.081 286.770,206.200 266.200 C 206.319 245.630,206.319 211.970,206.200 191.400 C 206.081 170.830,205.984 187.660,205.984 228.800 M138.583 160.150 C 139.078 161.633,140.800 161.879,140.800 160.467 C 140.800 159.770,140.230 159.200,139.533 159.200 C 138.837 159.200,138.409 159.628,138.583 160.150 M140.153 166.460 C 140.311 166.933,140.782 167.320,141.200 167.320 C 141.618 167.320,142.089 166.933,142.247 166.460 C 142.404 165.987,141.933 165.600,141.200 165.600 C 140.467 165.600,139.996 165.987,140.153 166.460 M148.122 221.787 C 148.850 222.379,149.610 223.749,149.813 224.831 C 150.173 226.752,150.185 226.747,150.291 224.628 C 150.368 223.102,149.865 222.197,148.600 221.584 C 147.035 220.826,146.973 220.852,148.122 221.787 M270.572 229.735 C 270.735 235.540,271.092 237.929,271.820 238.075 C 272.381 238.188,272.471 238.097,272.020 237.873 C 270.781 237.259,270.948 222.635,272.200 222.130 C 272.787 221.893,272.610 221.700,271.772 221.663 C 270.477 221.606,270.365 222.356,270.572 229.735 M244.934 244.133 C 244.858 246.258,244.369 248.041,243.800 248.270 C 243.017 248.586,243.022 248.687,243.825 248.737 C 245.250 248.825,245.762 247.104,245.388 243.484 C 245.079 240.502,245.065 240.523,244.934 244.133 M150.152 248.557 C 150.675 248.930,151.249 251.207,151.427 253.617 L 151.750 258.000 151.675 253.263 C 151.620 249.775,151.284 248.441,150.400 248.202 C 149.563 247.976,149.488 248.083,150.152 248.557 M148.240 252.800 C 148.240 255.220,148.390 256.210,148.573 255.000 C 148.756 253.790,148.756 251.810,148.573 250.600 C 148.390 249.390,148.240 250.380,148.240 252.800 M368.000 306.800 C 368.000 307.460,368.540 308.000,369.200 308.000 C 369.860 308.000,370.400 307.460,370.400 306.800 C 370.400 306.140,369.860 305.600,369.200 305.600 C 368.540 305.600,368.000 306.140,368.000 306.800 M354.109 328.405 C 353.830 329.131,354.111 329.600,354.825 329.600 C 356.119 329.600,356.413 328.350,355.284 327.652 C 354.890 327.408,354.361 327.747,354.109 328.405 M40.920 335.960 C 41.096 336.488,41.501 336.893,41.820 336.860 C 42.777 336.761,42.591 335.664,41.560 335.320 C 41.032 335.144,40.744 335.432,40.920 335.960 " stroke="none" fill="#e8e8dd" fill-rule="evenodd"></path></g></svg>